<svg xmlns="http://www.w3.org/2000/svg" viewBox="0 0 24 24" width="48" height="48" fill="yellow">
    <path d="M12 4C12.6 4 13 3.6 13 3V1C13 0.4 12.6 0 12 0C11.4 0 11 0.4 11 1V3C11 3.6 11.4 4 12 4ZM12 24C12.6 24 13 23.6 13 23V21C13 20.4 12.6 20 12 20C11.4 20 11 20.4 11 21V23C11 23.6 11.4 24 12 24ZM4.2 5.8C4.6 5.4 4.6 4.8 4.2 4.4C3.8 4 3.2 4 2.8 4.4L1.4 5.8C1 6.2 1 6.8 1.4 7.2C1.8 7.6 2.4 7.6 2.8 7.2L4.2 5.8ZM21.2 5.8L22.6 7.2C23 7.6 23.6 7.6 24 7.2C24.4 6.8 24.4 6.2 24 5.8L22.6 4.4C22.2 4 21.6 4 21.2 4.4C20.8 4.8 20.8 5.4 21.2 5.8ZM12 6C8.1 6 5 9.1 5 13C5 16.9 8.1 20 12 20C15.9 20 19 16.9 19 13C19 9.1 15.9 6 12 6ZM3 13H1C0.4 13 0 12.6 0 12C0 11.4 0.4 11 1 11H3C3.6 11 4 11.4 4 12C4 12.6 3.6 13 3 13ZM24 13H22C21.4 13 21 12.6 21 12C21 11.4 21.4 11 22 11H24C24.6 11 25 11.4 25 12C25 12.6 24.6 13 24 13Z"/>
</svg>
